<svg width="1276" height="339" viewBox="0 0 1276 339" fill="none" xmlns="http://www.w3.org/2000/svg"><path d="M92.5304 60.26C109.171 60.26 122.66 46.7703 122.66 30.13C122.66 13.4897 109.171 0 92.5304 0C75.89 0 62.4004 13.4897 62.4004 30.13C62.4004 46.7703 75.89 60.26 92.5304 60.26Z" fill="#168AD8"/><path d="M205.104 97.8439H205.134L138.412 326.019C138.335 326.325 138.243 326.615 138.152 326.905V326.982H138.121C135.814 333.842 129.351 338.792 121.727 338.792C112.193 338.792 104.431 331.03 104.431 321.496C104.431 320.35 104.554 319.25 104.752 318.181V318.12C104.783 318.013 104.813 317.906 104.844 317.799L147.227 126.935L71.4136 153.719C68.6481 154.956 65.6076 155.659 62.399 155.659C53.904 155.659 46.5243 150.846 42.8115 143.803L4.56839 89.303L4.61423 89.2724C1.75707 86.1861 0 82.0761 0 77.5535C0 68.0195 7.76168 60.2578 17.2957 60.2578C21.9252 60.2578 26.1116 62.0913 29.2133 65.0401L29.3049 65.1318C29.8855 65.6971 30.4203 66.293 30.9092 66.9194L67.4869 107.745L167.38 67.3014C171.46 64.49 176.395 62.8247 181.712 62.8247C195.677 62.8247 207.029 74.1922 207.029 88.1418C207.029 91.5796 206.342 94.8492 205.089 97.8439H205.104Z" fill="#168AD8"/><g transform="translate(212, 38.5)"><path d="M0.0189694 258.101L5.72754 225.822C9.02752 226.675 12.8396 227.112 17.1637 227.112C24.2947 227.112 29.9084 225.329 33.986 221.782C38.0636 218.236 40.7566 212.793 42.0652 205.472L72.7512 32.1094H108.406L77.8909 204.505C74.6099 223.015 67.9151 236.784 57.7686 245.83C47.6221 254.877 33.8153 259.391 16.3102 259.391C9.82407 259.391 4.39997 258.954 0 258.101H0.0189694Z" fill="#000000"/><path d="M104.329 244.825C96.9898 235.115 94.9415 221.194 98.1656 203.044L128.681 32.1094H164.336L133.365 205.605C132 213.286 132.569 218.843 135.091 222.256C137.614 225.67 141.786 227.377 147.627 227.377C153.469 227.377 158.248 225.67 161.984 222.256C165.72 218.843 168.281 213.286 169.665 205.605L200.636 32.1094H234.982L204.467 203.044C201.224 221.175 194.206 235.115 183.396 244.825C172.586 254.536 158.532 259.391 141.255 259.391C123.978 259.391 111.65 254.536 104.31 244.825H104.329Z" fill="#000000"/><path d="M230.146 245.032C222.806 235.455 220.758 221.724 223.982 203.84L245.015 87.6766C248.258 69.7922 255.275 56.0613 266.085 46.4838C276.895 36.9062 290.93 32.127 308.226 32.127C325.523 32.127 337.831 36.9252 345.171 46.4838C352.511 56.0613 354.559 69.7922 351.316 87.6766L347.883 106.623H314.181L318.012 85.4766C320.649 70.9491 315.794 63.7043 303.485 63.7043C291.176 63.7043 283.704 70.9681 281.068 85.4766L259.182 206.362C256.584 220.681 261.458 227.831 273.766 227.831C286.075 227.831 293.528 220.681 296.126 206.362L303.959 163.121H286.132L291.84 131.562H343.369L330.283 203.84C327.04 221.724 320.023 235.455 309.213 245.032C298.402 254.61 284.349 259.389 267.071 259.389C249.794 259.389 237.466 254.61 230.127 245.032H230.146Z" fill="#000000"/><path d="M404.911 47.3379L327.949 259.409H361.006L375.325 217.913H415.835L415.949 217.306L414.488 259.409H450.143L453.197 47.3379H404.911ZM417.068 189.104H384.978L420.311 84.2825H420.956L417.068 189.104Z" fill="#000000"/><path d="M446.446 32.0705H417.068L431.918 0H468.73L446.446 32.0705Z" fill="#000000"/><path d="M634.639 47.3379L557.678 259.409H590.734L605.053 217.913H645.563L645.677 217.306L644.217 259.409H679.872L682.925 47.3379H634.639ZM646.796 189.104H614.707L650.039 84.2825H650.684L646.796 189.104Z" fill="#168AD8"/><path d="M676.174 32.0705H646.797L661.647 0H698.459L676.174 32.0705Z" fill="#168AD8"/><path d="M729.504 32.017H783.866C801.562 32.017 814.318 36.7687 822.169 46.2549C830.02 55.7581 832.984 69.6723 831.042 87.9975L819.001 202.547C817.077 220.889 811.184 234.804 801.34 244.29C791.496 253.793 777.735 258.528 760.04 258.528H705.678L729.487 32L729.504 32.017ZM762.816 226.186C768.641 226.186 773.29 224.466 776.782 221.009C780.273 217.568 782.436 211.948 783.236 204.182L795.618 86.3966C796.435 78.6305 795.465 73.0274 792.689 69.5702C789.93 66.1299 785.621 64.3928 779.796 64.3928H761.675L744.661 226.186H762.782H762.816Z" fill="#168AD8"/><path d="M989.673 32.0156H1025.27L1004.86 226.185H1063.43L1060.03 258.543H965.863L989.673 32.0156Z" fill="#168AD8"/><path d="M862.672 32.017H959.748L956.342 64.3757H894.861L888.576 124.239H937.438L934.032 156.598H885.17L877.864 226.169H939.345L935.939 258.528H838.863L862.672 32V32.017Z" fill="#168AD8"/><path d="M583.708 46.2388C575.856 36.752 563.082 32 545.403 32H492.978L469.678 258.543C491.178 258.543 469.678 258.543 480.255 258.543H504.765L514.456 166.315H531.283C548.98 166.315 562.742 161.58 572.586 152.076C582.431 142.589 588.307 128.674 590.248 110.33L592.599 88.0014C594.523 69.6579 591.56 55.7427 583.725 46.2558L583.708 46.2388ZM557.223 85.7191L554.396 112.579C553.578 120.345 551.552 125.847 548.298 129.083C545.045 132.319 540.515 133.937 534.673 133.937H517.845L525.152 64.3609H541.98C547.805 64.3609 552.011 65.979 554.583 69.215C557.155 72.4511 558.041 77.9525 557.223 85.7191Z" fill="#168AD8"/></g></svg>
